<svg width="14" height="18" viewBox="0 0 14 18" fill="none" xmlns="http://www.w3.org/2000/svg">
<path d="M7.4375 0C3.68229 0 0 2.45136 0 6.45286C0 8.97632 1.42188 10.4183 2.29688 10.4183C2.66146 10.4183 2.88021 9.44496 2.88021 9.15657C2.88021 8.83212 2.00521 8.11113 2.00521 6.7052C2.00521 3.82124 4.22917 1.76642 7.10938 1.76642C9.625 1.76642 11.4479 3.17235 11.4479 5.73187C11.4479 7.64249 10.6823 11.2114 8.16667 11.2114C7.25521 11.2114 6.45312 10.5625 6.45312 9.66126C6.45312 8.29138 7.4375 6.95755 7.4375 5.55162C7.4375 3.17235 4.01042 3.60495 4.01042 6.48891C4.01042 7.10175 4.08333 7.75064 4.375 8.32743C3.86458 10.4543 2.84375 13.6628 2.84375 15.8618C2.84375 16.5467 2.91667 17.1956 2.98958 17.8805C3.09896 18.0247 3.0625 18.0247 3.24479 17.9526C5.06771 15.4652 5.03125 14.9605 5.83333 11.7161C6.30729 12.5452 7.4375 13.0139 8.38542 13.0139C12.25 13.0139 14 9.26472 14 5.91211C14 2.34322 10.8646 0 7.4375 0Z" fill="white"/>
</svg>
