<svg width="19" height="15" viewBox="0 0 19 15" fill="none" xmlns="http://www.w3.org/2000/svg">
<path d="M17.0665 3.72289C17.8102 3.18072 18.4795 2.53012 19 1.77108C18.3307 2.06024 17.5499 2.27711 16.7691 2.3494C17.5871 1.87952 18.182 1.15663 18.4795 0.253012C17.7358 0.686747 16.8806 1.01205 16.0254 1.19277C15.2818 0.433735 14.2779 0 13.1624 0C11.0059 0 9.25832 1.6988 9.25832 3.79518C9.25832 4.08434 9.2955 4.37349 9.36986 4.66265C6.13503 4.48193 3.23483 2.96386 1.30137 0.686747C0.966732 1.22892 0.780822 1.87952 0.780822 2.60241C0.780822 3.90361 1.4501 5.06024 2.52838 5.74699C1.89628 5.71084 1.26419 5.56627 0.74364 5.27711V5.31325C0.74364 7.15663 2.08219 8.6747 3.86693 9.03615C3.56947 9.10843 3.19765 9.18072 2.86301 9.18072C2.60274 9.18072 2.37965 9.14458 2.11937 9.10843C2.60274 10.6265 4.05284 11.7108 5.76321 11.747C4.42466 12.759 2.75147 13.3735 0.92955 13.3735C0.594912 13.3735 0.297456 13.3374 0 13.3012C1.71037 14.3855 3.75538 15 5.9863 15C13.1624 15 17.0665 9.25301 17.0665 4.22892C17.0665 4.04819 17.0665 3.90361 17.0665 3.72289Z" fill="white"/>
</svg>
