<svg width="20" height="15" viewBox="0 0 20 15" fill="none" xmlns="http://www.w3.org/2000/svg">
<path d="M19.5612 2.38281C19.3419 1.44531 18.6472 0.703125 17.8062 0.46875C16.234 0 10.0183 0 10.0183 0C10.0183 0 3.766 0 2.19378 0.46875C1.35283 0.703125 0.658135 1.44531 0.438757 2.38281C0 4.02344 0 7.53906 0 7.53906C0 7.53906 0 11.0156 0.438757 12.6953C0.658135 13.6328 1.35283 14.3359 2.19378 14.5703C3.766 15 10.0183 15 10.0183 15C10.0183 15 16.234 15 17.8062 14.5703C18.6472 14.3359 19.3419 13.6328 19.5612 12.6953C20 11.0156 20 7.53906 20 7.53906C20 7.53906 20 4.02344 19.5612 2.38281ZM7.97075 10.7031V4.375L13.1627 7.53906L7.97075 10.7031Z" fill="white"/>
</svg>
